<svg width="36" height="36" viewBox="0 0 36 36" fill="none" xmlns="http://www.w3.org/2000/svg">
<path fill-rule="evenodd" clip-rule="evenodd" d="M27 23.625V16.125C27 11.52 24.555 7.665 20.25 6.645V5.625C20.25 4.38 19.245 3.375 18 3.375C16.755 3.375 15.75 4.38 15.75 5.625V6.645C11.46 7.665 9 11.505 9 16.125V23.625L6 26.625V28.125H30V26.625L27 23.625ZM18 32.625C19.65 32.625 21 31.275 21 29.625H15C15 31.275 16.35 32.625 18 32.625ZM12 25.125H24V16.125C24 12.405 21.735 9.375 18 9.375C14.265 9.375 12 12.405 12 16.125V25.125Z" fill="black" fill-opacity="0.54"/>
</svg>
