<svg width="36" height="36" viewBox="0 0 36 36" fill="none" xmlns="http://www.w3.org/2000/svg">
<path fill-rule="evenodd" clip-rule="evenodd" d="M6.33008 6.33008V10.5751C16.8751 10.5751 25.4251 19.1251 25.4251 29.6701H29.6701C29.6701 16.7851 19.2151 6.33008 6.33008 6.33008ZM9.60008 23.1302C7.79411 23.1302 6.33008 24.5942 6.33008 26.4002C6.33008 28.2061 7.79411 29.6702 9.60008 29.6702C11.406 29.6702 12.8701 28.2061 12.8701 26.4002C12.8701 24.5942 11.406 23.1302 9.60008 23.1302ZM6.33008 19.0652V14.8202C14.5351 14.8202 21.1801 21.4652 21.1801 29.6702H16.9351C16.9351 23.8202 12.1801 19.0652 6.33008 19.0652Z" fill="#673AB7"/>
</svg>
