<svg width="36" height="36" viewBox="0 0 36 36" fill="none" xmlns="http://www.w3.org/2000/svg">
<path fill-rule="evenodd" clip-rule="evenodd" d="M3 18C3 9.72 9.72 3 18 3C26.28 3 33 9.72 33 18C33 26.28 26.28 33 18 33C9.72 33 3 26.28 3 18ZM19.5 24V27H16.5V24H19.5ZM18 30C11.385 30 6 24.615 6 18C6 11.385 11.385 6 18 6C24.615 6 30 11.385 30 18C30 24.615 24.615 30 18 30ZM12 15C12 11.685 14.685 9 18 9C21.315 9 24 11.685 24 15C24 16.9244 22.815 17.96 21.6611 18.9683C20.5665 19.9249 19.5 20.8569 19.5 22.5H16.5C16.5 19.7681 17.9132 18.6849 19.1557 17.7325C20.1304 16.9854 21 16.3188 21 15C21 13.35 19.65 12 18 12C16.35 12 15 13.35 15 15H12Z" fill="black" fill-opacity="0.54"/>
</svg>
