<svg width="310" height="74" viewBox="0 0 310 74" fill="none" xmlns="http://www.w3.org/2000/svg">
<rect width="310" height="74" fill="white"/>
<path fill-rule="evenodd" clip-rule="evenodd" d="M37 57C48.0457 57 57 48.0457 57 37C57 25.9543 48.0457 17 37 17C25.9543 17 17 25.9543 17 37C17 48.0457 25.9543 57 37 57ZM26.6923 49.2111V31.5818C26.6923 31.3997 26.7815 31.2291 26.9312 31.1249L36.9113 24.1771C37.1032 24.0435 37.3583 24.0435 37.5502 24.1771L47.5304 31.1249C47.68 31.2291 47.7692 31.3997 47.7692 31.5818V45.6837C47.7692 45.9914 47.5193 46.2408 47.2109 46.2408H32.6607C32.5463 46.2408 32.4347 46.2759 32.3409 46.3413L27.5704 49.6678C27.2004 49.9259 26.6923 49.6617 26.6923 49.2111Z" fill="url(#paint0_linear)"/>
<path d="M99.9053 26.1157L91.0528 38.301L82.2003 26.1157H80V47.0287H85.4752V38.8152L91.04 46.6816H91.0784L96.6304 38.8152V47.0287H102.106V26.1157H99.9053Z" fill="#330B86"/>
<path d="M110.523 47.0287H115.96V38.0825L122.331 26.3085H116.114L113.248 32.3112L110.37 26.3085H104.165L110.523 38.0825V47.0287Z" fill="#330B86"/>
<path d="M130.825 47.3115C134.957 47.3115 138.616 44.8564 138.616 40.9103C138.616 37.8511 136.479 35.8717 133.256 34.5092C131.03 33.5708 129.571 33.2624 129.571 32.3112C129.571 31.6042 130.377 31.0258 131.503 31.0258C132.488 31.0258 134.074 31.5014 134.688 32.594L137.848 29.5348C137.042 27.491 134.586 26 131.439 26C127.525 26 124.135 28.5579 124.135 32.1441C124.135 35.2675 126.373 36.9899 128.983 38.1211C131.004 39.0208 133.115 39.9591 133.115 41.026C133.115 41.8744 131.976 42.2985 130.812 42.2985C129.085 42.2985 127.486 41.5273 126.629 40.2548L123.316 43.5196C124.352 45.8076 127.435 47.3115 130.825 47.3115Z" fill="#330B86"/>
<path d="M141.123 47.0287H146.598V26.3085H141.123V47.0287Z" fill="#330B86"/>
<path d="M164.303 26.3085H148.927V31.45H153.877V47.0287H159.365V31.45H164.303V26.3085Z" fill="#330B86"/>
<path d="M180 31.4243V26.3085H166.632V47.0287H180V41.8744H172.043V38.9051H178.593V34.3164H172.043V31.4243H180Z" fill="#330B86"/>
<defs>
<linearGradient id="paint0_linear" x1="19.906" y1="53.2676" x2="53.7193" y2="16.0765" gradientUnits="userSpaceOnUse">
<stop offset="0.276042" stop-color="#330B86"/>
<stop offset="1" stop-color="#7329C6"/>
</linearGradient>
</defs>
</svg>
